<svg id="Layer_1" data-name="Layer 1" xmlns="http://www.w3.org/2000/svg" viewBox="0 0 100 91.21"><defs><style>.cls-1{fill:none;}.cls-2{fill:#f0c419;}</style></defs><title>toolbox-gold</title><path d="M482,414.6v31.49l-63.64,18.37L382,454V422.52l6.82,1.92,6.82-11.15v-7.76a4.15,4.15,0,0,1,2.49-3.91c2.82-1.19,4.68-2.27,9.13.43l50.57-14.58s-2.51-2.37.05-3.11l4.16-1.21a4.65,4.65,0,0,1,1-.09,3,3,0,0,1,.78.08c2.25.65,4.56,3.9,4.56,6.53v7.87l6.82,15.09Z" transform="translate(-382 -383.06)"/><path class="cls-1" d="M482,414.6v59.67H382V422.52l6.82,1.92,6.82-11.15v-7.76a4.15,4.15,0,0,1,2.49-3.91c2.82-1.19,4.68-2.27,9.13.43l50.57-14.58s-2.51-2.37.05-3.11l4.16-1.21a4.65,4.65,0,0,1,1-.09,3,3,0,0,1,.78.08c2.25.65,4.56,3.9,4.56,6.53v7.87l6.82,15.09Z" transform="translate(-382 -383.06)"/><polygon class="cls-2" points="65.89 24.3 67.25 22.09 63.64 21.05 59.09 22.35 59.1 22.39 65.89 24.3"/><path class="cls-2" d="M460.66,390.48a1.83,1.83,0,0,1-1.31,1.81l-50.08,14.44a8.62,8.62,0,0,0-2-4.68l50.57-14.58a1.4,1.4,0,0,1,.76,0A3.67,3.67,0,0,1,460.66,390.48Z" transform="translate(-382 -383.06)"/><polygon class="cls-2" points="40.89 48.59 63.51 42.06 63.52 26.37 29.41 36.26 34.08 46.63 40.89 48.59"/><path class="cls-2" d="M475.18,412.63l-6.82-15.09v-7.87c0-2.63-2.31-5.88-4.56-6.53a3,3,0,0,0-.78-.08,4.65,4.65,0,0,0-1,.09l-4.16,1.21a3.16,3.16,0,0,1,1.36.09c2.25.65,4.58,3.91,4.58,6.53v7.87l6.82,15.09,6.8,1.94v2.66l-54.53,15.79v-2.67l-4.53,1.3-6.83-1.91-6.82-15.14v-7.76c0-2.62-2.29-6-4.55-6.62a3.18,3.18,0,0,0-2.05.09,4.15,4.15,0,0,0-2.49,3.91v7.76l-6.82,11.15L382,422.52V454l36.36,10.45L482,446.09V414.6Z" transform="translate(-382 -383.06)"/><path d="M398.13,401.62Z" transform="translate(-382 -383.06)"/><path class="cls-1" d="M398.13,401.62c2.82-1.19,4.68-2.27,9.13.43" transform="translate(-382 -383.06)"/><path class="cls-1" d="M457.83,387.47s-2.51-2.37.05-3.11" transform="translate(-382 -383.06)"/></svg>