<svg id="Layer_1" data-name="Layer 1" xmlns="http://www.w3.org/2000/svg" viewBox="0 0 100 100"><defs><style>.cls-1{fill:none;}.cls-2{fill:#f0c419;}</style></defs><title>toolbox-blackbg</title><rect y="8.79" width="100" height="81.4"/><rect class="cls-1" width="100" height="100"/><polygon class="cls-2" points="65.89 33.1 67.25 30.88 63.64 29.84 59.09 31.15 59.1 31.19 65.89 33.1"/><path class="cls-2" d="M458.6,387.42a1.54,1.54,0,0,0-.77.05l-50.57,14.58a8.59,8.59,0,0,1,2,4.68l50.08-14.44a1.83,1.83,0,0,0,1.31-1.81A3.7,3.7,0,0,0,458.6,387.42Z" transform="translate(-382 -374.26)"/><polygon class="cls-2" points="40.89 57.38 63.51 50.85 63.52 35.17 29.41 45.05 34.08 55.42 40.89 57.38"/><path class="cls-2" d="M475.18,412.63l-6.82-15.09v-7.88c0-2.62-2.31-5.88-4.56-6.53a4.69,4.69,0,0,0-1.76,0l-4.16,1.2a3.32,3.32,0,0,1,1.36.09c2.25.65,4.58,3.91,4.58,6.54v7.87l6.82,15.09,6.8,1.93v2.67l-54.53,15.79v-2.68l-4.53,1.3-6.83-1.9-6.82-15.14v-7.76c0-2.62-2.29-6-4.55-6.63s-4.54,1.38-4.54,4v7.75l-6.82,11.16L382,422.52V454l36.36,10.45L482,446.09V414.6Z" transform="translate(-382 -374.26)"/></svg>